<svg width="11" height="18" viewBox="  11 18" fill="none" xmlns="http://www.w3.org/2/svg">
<g clip-path="url(#clip_135_3354)">
<path d="M1.26449 16.5385C.36955 15.2762 -.74741 13.7627 1.273e-5 12.238V5.84615C-.18365 4.29774 .3871 2.75746 1.18546 1.46154C2.5478 .461538 3.39829  5.3743 C7.34978  8.61425 .461538 9.4455 1.3769C1.2626 2.37941 1.6846 3.72136 1.59 5.7692V6.61539H6.71754V4.84615C6.74881 4.32289 6.6688 3.799 6.4845 3.3769C6.3816 3.1938 6.2212 2.9448 6.243 2.83513C5.82686 2.72547 5.649 2.67572 5.3743 2.69231C4.8282 2.69231 4.42568 2.84615 4.26762 3.2377C4.8883 3.77733 4.862 4.34988 4.353 4.9238V13.1538C3.98879 13.71 4.978 14.267 4.34665 14.7692C4.547 15.1538 4.89985 15.377 5.4536 15.377C6.627 15.377 6.32239 15.1538 6.4845 14.7692C6.6613 14.2494 6.7449 13.719 6.71754 13.1538V11.377H1.59V12.8462C1.674 14.2238 1.258 15.5852 9.4455 16.6923C8.61425 17.6154 7.2775 18.769 5.3743 18.769C3.47732 18 2.5478 17.5385 1.26449 16.5385Z" fill="#111111"/>
<path d="M15.2527 .2377H19.7574L23.767 17.7692H19.4413L18.891 14.769H16.211L15.5689 17.7692H11.8545L15.2527 .2377ZM18.493 11.7692L17.5446 4.9238L16.5963 11.7692H18.493Z" fill="#111111"/>
<path d="M25.8427 3.15385H23.1557V.2377H32.562V3.7692H29.8732V17.7692H25.8427V3.15385Z" fill="#111111"/>
<path d="M39.752 .2377H46.766V2.7692H42.219V7.84615H45.8372V9.61539H42.219V16.769H46.766V17.8462H39.6729V.2377H39.752Z" fill="#111111"/>
<path d="M48.7613 .2377H5.5L55.6369 11.8462V.2377H57.6917V17.7692H56.1111L5.8951 5.76923V17.7692H48.7613V.2377Z" fill="#111111"/>
<path d="M6.626 .2377H67.172V2.7692H62.5125V7.84615H66.1479V9.61539H62.5125V16.769H67.172V17.8462H6.626V.2377Z" fill="#111111"/>
<path d="M69.72 .2377H72.774C74.1375 .134618 75.5587 .514353 76.7379 1.3769C77.672 2 78.24 3.2377 78.24 4.84616C78.24 7.7692 77.2911 8.46154 75.7895 8.9238L78.3185 17.6923H75.8686L73.4977 9.46154H71.5219V17.6923H68.993V.2377H69.72ZM72.5493 7.76923C73.364 7.83458 74.1761 7.61652 74.8412 7.15385C75.3154 6.76923 75.5524 6 75.5524 4.84616C75.5743 4.27296 75.4941 3.74 75.3154 3.15385C75.1375 2.76166 74.832 2.4373 74.446 2.2377C73.917 1.98934 73.342 1.8836 72.774 1.9238H71.61V7.69231H72.5493V7.76923Z" fill="#111111"/>
<path d="M81.1635 16.4615C8.342 15.1166 79.9564 13.5617 8.571 12V6.15384C8.376 5.3911 8.175 3.9268 8.4523 2.84615C8.7167 2.3863 81.2437 1.33668 81.9538 .846152C82.8362 .337748 83.8542 .967294 84.8779 .153844C86.5376 .153844 87.723 .53846 88.4343 1.38461C89.2525 2.5191 89.6438 3.86237 89.547 5.2377V5.84615H87.1698V5.3769C87.1734 4.66346 87.125 4.21 87.117 3.38461C86.9451 2.9833 86.7178 2.62348 86.3795 2.38461C85.9353 2.182 85.481 1.96579 84.8779 2C84.3113 1.96466 83.754 2.12843 83.2973 2.46154C83.1114 2.6141 82.9595 2.8181 82.858 3.1344C82.7421 3.2257 82.6789 3.4568 82.6651 3.69231C82.569 4.37999 82.581 5.7411 82.57 5.76923V12.377C82.4488 13.338 82.615 14.36 82.9812 15.238C83.2973 15.8462 83.9296 16.769 84.8779 16.769C85.2524 16.1223 85.6323 16.589 85.9698 15.8947C86.373 15.734 86.5873 15.4727 86.7746 15.1538C87.1922 14.1811 87.3812 13.1299 87.3278 12.769V1.8462H85.36V9.7692H89.6197V17.7692H88.391L87.82 15.7692C87.5948 16.4395 87.1634 17.231 86.5763 17.4273C85.9892 17.8315 85.281 18.331 84.5618 18C83.988 18.374 83.2565 17.9164 82.6634 17.6479C82.72 17.3794 81.5549 16.9717 81.1635 16.4615Z" fill="#111111"/>
<path d="M94.6776 11.6154L9.852 .3769H93.1761L95.9421 8.76923L98.6291 .3769H11L97.1275 11.6154V17.7692H94.7566V11.6154H94.6776Z" fill="#111111"/>
</g>
<defs>
<clipPath id="clip_135_3354">
<rect width="11" height="18" fill="white"/>
</clipPath>
</defs>
</svg>
