<svg width="33" height="38" viewBox="  33 38" fill="none" xmlns="http://www.w3.org/2/svg">
<g clip-path="url(#clip_153_267)">
<path d="M6.117 2.9349V18.6514C12.6311 17.7242 19.365 17.2752 25.988 17.376C25.988 17.9139 25.988 18.532 25.9286 19.1465C27.8277 18.2867 29.8236 17.6691 31.879 17.376C3.5661 13.8643 28.1884 1.9536 25.137 9.2347C22.189 7.9332 18.398 6.2555 14.7979 6.62482C11.1978 6.9991 7.81798 8.56967 5.17831 11.95C2.53863 13.622 .785353 16.963 .188175 2.614L6.117 2.9349Z" fill="#FDC35"/>
<path d="M26.9784 24.4813C25.8295 25.7745 25.617 25.6937 25.617 27.967C25.617 28.8865 25.617 32.9178 25.617 37.2422C27.8723 35.7125 29.7362 33.6331 31.271 31.1895C32.3181 28.746 32.9959 26.143 33 23.2385C32.9869 22.1869 32.889 21.1385 32.6831 2.164C3.6312 21.3486 28.7183 22.8156 26.9784 24.4813Z" fill="#FDC35"/>
<path d="M6.29892 25.9867C6.29892 25.9867 2.54532 24.5318 1.15876 24.1377C.77958 24.158 .392293 23.9212  23.8548C.17354 26.777 .956315 29.68 2.4635 32.879C3.9768 34.5679 6.8426 36.653 8.59664 38L6.29892 25.9867Z" fill="#FDC35"/>
<path d="M26.375 17.2975C26.778 11.7189 25.6136 6.1484 24.651 .656758C24.651 .656758 24.5123 -.646619 23.7695 .414269C23.1861 1.67535 22.7857 3.1637 22.581 4.39513C18.3638 4.1185 14.135 4.2333 9.93367 4.73865C9.15126 2.276 7.77461 .757795 7.1114 1.139C6.44748 1.26298 6.39796 4.35471 6.39796 4.35471L6.7113 18.69C12.6882 17.6876 19.363 17.252 26.375 17.2975Z" fill="#F6351"/>
<path d="M12.298 14.1452C12.298 14.542 13.2812 14.8322 13.6873 15.747C14.933 15.3172 14.2914 15.4991 14.2914 15.678C14.2914 15.8426 14.24 16.144 13.6675 16.144C13.319 16.144 12.7662 15.8931 12.6771 15.7416H13.68H13.8953C13.2918 15.2863 12.7521 14.7492 12.298 14.1452Z" fill="black"/>
<path d="M19.699 14.2563L18.6194 15.61C18.6194 15.667 18.4511 15.9537 18.7977 15.932C19.279 15.848 19.6122 15.7428 2.6 15.612C2.1149 15.612 2.753 15.4182 19.8971 15.4384C19.7188 15.4587 19.2137 15.489 18.967 15.5496L19.7386 14.2765C19.7386 14.2765 19.879 14.1452 19.699 14.2563Z" fill="black"/>
<path d="M16.5891 2.495C17.482 2.231 17.4277 19.848 17.6687 19.3991C17.946 18.7424 17.6687 18.4797 17.2329 18.3887C16.6366 18.2777 16.211 18.44 15.596 18.7323C15.1233 19.96 15.1729 19.4597 15.461 19.7426C15.88 2.116 16.1872 2.2356 16.5891 2.495Z" fill="black"/>
<path d="M16.193 21.6724C16.82 21.933 15.9271 22.194 15.7374 22.2786C15.4553 22.512 15.186 22.6446 14.747 22.6626C14.2259 22.75 13.777 22.554 13.2911 22.2281C13.953 22.177 12.9183 21.9578 12.7662 21.7836C12.6667 21.6715 12.5452 21.582 12.497 21.529C12.497 21.529 13.1525 25.6634 14.955 26.321C16.7575 26.9769 17.744 25.5623 17.1339 25.1784C17.1934 24.318 16.912 22.8937 16.3217 21.9149C16.319 21.617 16.292 21.838 16.193 21.6724Z" fill="#F6351"/>
<path d="M14.5687 22.8242C14.185 22.7583 13.6664 22.597 13.2695 22.353C12.8727 22.135 12.5295 21.7766 12.2611 21.3895C12.2479 21.3764 12.2375 21.366 12.233 21.3433C12.2232 21.3259 12.2195 21.373 12.2195 21.2885C12.2195 21.2697 12.2232 21.251 12.233 21.2337C12.2375 21.2163 12.2479 21.26 12.2611 21.1874C12.274 21.174 12.2894 21.1633 12.364 21.156C12.3234 21.1487 12.3417 21.145 12.361 21.145C12.3786 21.145 12.3969 21.1487 12.4139 21.156C12.439 21.1633 12.4463 21.174 12.4592 21.1874C12.9591 21.8889 13.71 22.368 14.5489 22.59C14.8774 22.4757 15.1952 22.379 15.476 22.1952C15.7568 22.194 15.9924 21.7779 16.1633 21.496L16.319 21.2986L16.41 21.518C16.41 21.518 16.7674 22.2786 17.3914 22.3191C18.153 22.3595 18.4313 21.948 18.9859 21.258C18.9988 21.123 19.142 21.17 19.312 2.9944C19.482 2.9871 19.665 2.9833 19.849 2.9833C19.134 2.9833 19.1216 2.9871 19.1386 2.9944C19.1557 21.17 19.1711 21.123 19.184 21.258C19.216 21.466 19.2389 21.792 19.2482 21.1168C19.2574 21.1544 19.2521 21.1941 19.2335 21.2279C18.5996 22.2382 17.9757 22.6828 17.3715 22.6424C17.1418 22.683 16.9226 22.5215 16.734 22.3885C16.5383 22.2555 16.3782 22.797 16.2623 21.8745C16.675 22.1518 15.8142 22.3811 15.5212 22.5455C15.2281 22.798 14.926 22.851 14.5687 22.8242Z" fill="black"/>
<path d="M25.988 19.1162C24.297 2.7567 22.5327 22.58 2.9667 24.36C19.414 26.251 17.6526 27.8627 15.7275 29.37C15.596 28.7652 14.1231 27.7751 14.1231 27.7751C14.1231 27.7751 11.231 25.6129 8.9928 23.9154C7.89756 22.9731 6.86216 21.967 5.89286 2.8843L3.9127 2.7732C6.77449 25.224 1.9639 28.1565 15.7968 29.6645C16.6486 29.523 19.354 27.7852 2.8181 26.376C22.9167 24.5337 24.8827 22.5448 26.711 2.4196C27.1988 19.8245 27.5818 19.1389 27.831 18.3988C26.747 18.7929 25.988 19.1162 25.988 19.1162Z" fill="#F6351"/>
</g>
<defs>
<clipPath id="clip_153_267">
<rect width="33" height="38" fill="white"/>
</clipPath>
</defs>
</svg>
